<?xml version="1.0" encoding="UTF-8" standalone="no"?>
<!-- Created with Inkscape (http://www.inkscape.org/) -->

<svg
   xmlns:dc="http://purl.org/dc/elements/1.1/"
   xmlns:cc="http://creativecommons.org/ns#"
   xmlns:rdf="http://www.w3.org/1999/02/22-rdf-syntax-ns#"
   xmlns:svg="http://www.w3.org/2000/svg"
   xmlns="http://www.w3.org/2000/svg"
   xmlns:sodipodi="http://sodipodi.sourceforge.net/DTD/sodipodi-0.dtd"
   xmlns:inkscape="http://www.inkscape.org/namespaces/inkscape"
   width="134.36371mm"
   height="61.888279mm"
   viewBox="0 0 134.36371 61.88828"
   version="1.1"
   id="svg10197"
   inkscape:version="0.92.1 r15371"
   sodipodi:docname="celebrating-100-years.svg">
  <defs
     id="defs10191" />
  <sodipodi:namedview
     id="base"
     pagecolor="#ffffff"
     bordercolor="#666666"
     borderopacity="1.0"
     inkscape:pageopacity="0.0"
     inkscape:pageshadow="2"
     inkscape:zoom="0.98994949"
     inkscape:cx="517.57725"
     inkscape:cy="2.7719398"
     inkscape:document-units="mm"
     inkscape:current-layer="layer1"
     showgrid="false"
     inkscape:window-width="1920"
     inkscape:window-height="1017"
     inkscape:window-x="-8"
     inkscape:window-y="-8"
     inkscape:window-maximized="1"
     showguides="true"
     inkscape:guide-bbox="true"
     inkscape:snap-object-midpoints="true"
     inkscape:snap-bbox="true"
     inkscape:snap-bbox-midpoints="true"
     inkscape:snap-global="true"
     fit-margin-top="0"
     fit-margin-left="0"
     fit-margin-right="0"
     fit-margin-bottom="0">
    <sodipodi:guide
       position="67.181855,34.007806"
       orientation="1,0"
       id="guide4787"
       inkscape:locked="false" />
  </sodipodi:namedview>
  <metadata
     id="metadata10194">
    <rdf:RDF>
      <cc:Work
         rdf:about="">
        <dc:format>image/svg+xml</dc:format>
        <dc:type
           rdf:resource="http://purl.org/dc/dcmitype/StillImage" />
        <dc:title></dc:title>
      </cc:Work>
    </rdf:RDF>
  </metadata>
  <g
     inkscape:label="Layer 1"
     inkscape:groupmode="layer"
     id="layer1"
     transform="translate(-28.837181,-0.625258)">
    <g
       id="g5278"
       transform="matrix(0.35277777,0,0,-0.35277777,111.80842,80.827811)" />
    <g
       id="surface38"
       transform="matrix(0.35277777,0,0,0.35277777,60.046818,0.61974585)">
      <path
         id="path2"
         d="M 21.234375,35.699219 15.0625,43.742188 c -0.710937,1.125 -2.019531,3.761718 -3.445312,3.761718 -1.304688,0 -2.90625,-1.320312 -2.90625,-2.835937 0,-1.847656 4.214843,-6.398438 5.046875,-8.179688 -4.15625,0.398438 -6.058594,-0.460937 -6.058594,-2.703125 0,-1.515625 1.722656,-5.011718 3.324219,-5.011718 0.417968,0 0.890625,0.460937 1.367187,0.460937 0.652344,0 0.710938,-0.460937 9.734375,-2.375 2.257813,-2.4375 6.53125,-7.585937 11.753906,-14.179687 0.769532,-0.921875 2.492188,-3.230469 2.492188,-4.550782 0,-1.1875 -1.363281,-1.449218 -2.078125,-1.449218 -3.144531,0 -10.625,2.4375 -20.359375,6.921875 0.417969,0.199218 0.832031,0.398437 0.832031,0.992187 0,0.921875 -0.773437,1.316406 -1.484375,1.582031 -4.453125,1.714844 -4.035156,1.78125 -8.132812,4.089844 -0.710938,0.394531 -1.542969,0.921875 -2.375,0.921875 -1.363282,0 -1.78125,-1.847656 -1.78125,-3.035156 0,-1.910156 0.949218,-5.671875 2.019531,-7.253906 C 5.148438,8.195313 15.0625,4.566406 18.445313,3.378906 c 4.925781,-1.78125 12.40625,-3.363281 17.511718,-3.363281 4.925782,0 6.410157,3.230469 6.410157,6.464844 0,4.089844 -3.5625,8.046875 -5.9375,10.882812 l -6.707032,7.914063 9.140625,-1.1875 L 49.609375,9.117188 C 50.320313,8.0625 52.8125,4.371094 54.058594,4.371094 c 0.773437,0 1.011719,0.789062 1.011719,1.515625 0,2.109375 -0.417969,3.363281 -4.867188,9.429687 l -6.414062,8.773438 c 2.734375,0.06641 5.640625,0 8.074218,1.648437 -2.789062,2.441407 -5.222656,5.410157 -7.121093,8.839844 -1.78125,-0.464844 -3.621094,-0.660156 -6.054688,-0.464844 -0.890625,1.714844 -3.085937,4.816407 -3.085937,6.792969 0,1.1875 0.414062,2.707031 0.652343,3.960938 -1.902343,-0.464844 -4.929687,2.769531 -6.472656,2.175781 -1.007812,-0.398438 -1.363281,-1.320313 -1.066406,-3.300781 0.296875,-1.976563 1.246094,-5.011719 3.441406,-9.628907 l -10.921875,1.585938"
         style="fill:#211e1e;fill-opacity:1;fill-rule:nonzero;stroke:none"
         inkscape:connector-curvature="0" />
      <path
         id="path4"
         d="m 60.558594,40.390625 c -1.128906,0.992188 -4.925781,4.421875 -6.292969,4.421875 -1.660156,0 -5.105469,-4.355469 -5.222656,-7.785156 C 48.804688,28.785156 64.238281,20.34375 71.125,20.144531 c 2.730469,-0.06641 3.855469,2.375 3.855469,3.164063 0,0.792969 -1.542969,1.453125 -2.074219,1.652344 1.125,0.523437 1.71875,1.25 1.71875,2.699218 0,2.113282 -5.164062,6.730469 -5.164062,9.828125 0,1.121094 0.890625,1.582032 1.839843,1.582032 2.496094,0 5.878907,-3.359375 8.429688,-5.273438 l 0.476562,2.441406 c -2.554687,3.230469 -10.507812,10.289063 -13.417968,10.289063 -1.957032,0 -2.847657,-1.585938 -2.847657,-3.496094 0,-2.113281 1.425782,-5.605469 2.195313,-7.386719 L 66.019531,35.511719 Z M 53.375,38.675781 c 0.05859,0.332032 0.296875,1.519532 1.1875,1.320313 1.1875,-0.265625 3.027344,-0.06641 14.78125,-13.257813 L 69.226563,26.605469 C 55.097656,31.421875 53.375,35.445313 53.375,38.675781"
         style="fill:#211e1e;fill-opacity:1;fill-rule:nonzero;stroke:none"
         inkscape:connector-curvature="0" />
      <path
         id="path6"
         d="m 84.152344,31.277344 c -2.078125,3.628906 -4.574219,5.34375 -7.125,8.179687 l -0.238281,-2.902343 c 1.546875,-1.382813 2.789062,-3.035157 3.917968,-4.816407 -1.246093,-0.128906 -1.601562,-0.65625 -1.601562,-2.042968 0,-4.75 6.054687,-9.496094 7.480469,-9.496094 0.59375,0 1.066406,0.527344 1.066406,1.121094 0,0.660156 -0.175781,1.253906 -0.414063,1.847656 5.578125,-0.859375 8.84375,-1.648438 9.4375,-0.859375 0.890625,1.253906 1.304688,2.308594 1.425782,3.496094 0,2.042968 -1.128907,3.035156 -2.496094,4.289062 -1.71875,1.644531 -4.628906,4.878906 -4.628906,7.515625 0,1.054688 0.949218,1.847656 1.839843,1.847656 2.550782,0 6.292969,-4.285156 8.250004,-5.9375 l 0.41797,2.441407 c -2.257817,2.835937 -9.082036,10.15625 -12.464849,10.15625 -2.492187,0 -4.039062,-2.570313 -4.039062,-5.078125 0,-4.484375 3.085937,-7.980469 5.460937,-11.144532 l -0.117187,-0.132812 -6.171875,1.515625"
         style="fill:#211e1e;fill-opacity:1;fill-rule:nonzero;stroke:none"
         inkscape:connector-curvature="0" />
      <path
         id="path8"
         d="m 105.375,31.277344 c -2.07812,3.628906 -4.57031,5.34375 -7.121094,8.179687 l -0.238281,-2.902343 c 1.542969,-1.382813 2.789065,-3.035157 3.917965,-4.816407 -1.24609,-0.128906 -1.60546,-0.65625 -1.60546,-2.042968 0,-4.75 6.05468,-9.496094 7.48046,-9.496094 0.59375,0 1.07032,0.527344 1.07032,1.121094 0,0.660156 -0.17969,1.253906 -0.41797,1.847656 5.57812,-0.859375 8.84375,-1.648438 9.4375,-0.859375 0.89062,1.253906 1.30859,2.308594 1.42578,3.496094 0,2.042968 -1.12891,3.035156 -2.49219,4.289062 -1.72265,1.644531 -4.63281,4.878906 -4.63281,7.515625 0,1.054688 0.95312,1.847656 1.83984,1.847656 2.55469,0 7.625,-5.625 9.58594,-7.273437 l -0.91797,3.777344 c -2.2539,2.835937 -9.08203,10.15625 -12.46484,10.15625 -2.49219,0 -4.03516,-2.570313 -4.03516,-5.078125 0,-4.484375 3.08594,-7.980469 5.46094,-11.144532 l -0.12109,-0.132812 -6.17188,1.515625"
         style="fill:#211e1e;fill-opacity:1;fill-rule:nonzero;stroke:none"
         inkscape:connector-curvature="0" />
      <path
         id="path10"
         d="m 132.25391,56.539063 c -0.59766,0.726562 -2.25782,3.296875 -3.20704,3.296875 -1.24609,0 -1.78124,-3.230469 -1.78124,-4.351563 0,-1.054687 1.1289,-3.101562 1.60156,-3.957031 l 7.95703,-14.90625 -0.1211,-0.132813 c -4.86718,4.550782 -9.19921,8.113282 -9.91406,8.046875 -1.66015,-0.132812 -4.50781,-2.902343 -4.6875,-7.78125 -0.23828,-7.914062 9.91406,-16.292968 11.57422,-16.359375 0.89063,0 2.55469,2.113282 2.55469,3.035157 0,2.507812 -6.70703,9.367187 -8.66797,11.082031 -0.71094,1.121094 -1.06641,2.4375 -1.12891,3.824219 3.14844,-0.394532 5.9961,-3.230469 8.48828,-5.804688 6.11329,-6.265625 9.91407,-10.816406 11.04297,-11.011719 1.00782,-0.199218 1.60157,2.371094 1.60157,3.296875 0,1.714844 -1.60157,4.417969 -2.4336,5.800782 l -8.78515,14.511718 0.12109,0.132813 13.17578,-12.992188 0.47266,2.4375 -17.86328,21.832032"
         style="fill:#211e1e;fill-opacity:1;fill-rule:nonzero;stroke:none"
         inkscape:connector-curvature="0" />
      <path
         id="path12"
         d="m 157.75781,7.066406 c 0.94922,0 3.02735,0 3.02735,1.519532 0,1.777343 -1.78125,6 -2.78907,7.320312 -3.5625,4.878906 -4.80859,4.351563 -6.11328,4.351563 0.94922,-1.386719 1.95703,-2.835938 2.67188,-4.484375 -1.07032,-0.394532 -2.25782,-0.792969 -2.25782,-2.308594 0,-2.703125 2.90625,-6.398438 5.46094,-6.398438"
         style="fill:#211e1e;fill-opacity:1;fill-rule:nonzero;stroke:none"
         inkscape:connector-curvature="0" />
      <path
         id="path14"
         d="m 6.597656,88.785156 c 0,0 24.375,7.371094 24.375,34.207034 0,0 13.589844,-19.77735 57.558594,-27.652346 41.16797,-7.375 53.66406,1.636719 70.46094,-12.085938 13.125,-10.726562 12.32812,-38.609375 11.89062,-45.75 -0.0664,-1.078125 -0.26953,-1.792968 -0.50781,-1.917968 -0.71875,-0.375 -2.26953,-0.902344 -3.19141,0.863281 -1.22656,2.355469 1.58594,15.46875 -9.83203,22.226562 -10.03515,5.9375 -35.53515,3.992188 -52.74218,4.8125 C 87.402344,64.308594 39.167969,63.386719 6.597656,88.785156"
         style="fill:#211e1e;fill-opacity:1;fill-rule:nonzero;stroke:none"
         inkscape:connector-curvature="0" />
      <path
         id="path16"
         d="m 166.82422,37.28125 c -2.90625,2.4375 -5.22266,4.417969 -9.01953,3.691406 3.79687,-2.570312 7.71484,-6.59375 7.71484,-12.003906 0,-2.902344 -0.89062,-5.144531 -1.12891,-7.648437 -0.17578,-1.847657 -0.53125,-2.441407 -2.3125,-2.441407 -2.13671,0 -3.26562,2.109375 -3.38281,4.285157 l -12.88281,13.125 c -0.47266,0.527343 -1.42578,1.453125 -1.42578,2.308593 0,0.59375 0.41797,1.253907 1.01172,1.253907 0.53515,0 0.94922,-0.460938 1.30468,-0.855469 1.07032,4.8125 5.46094,7.320312 9.4375,7.519531 3.6836,0.203125 8.39844,-3.359375 12.01954,-6.84375 v -3.527344 z m -11.98828,2.242188 c -1.12891,-1.714844 -2.4336,-3.761719 -4.62891,-3.890625 l 8.54688,-8.90625 c 0.35546,2.242187 0.59375,4.023437 0.76953,5.410156 -0.17578,3.824219 -1.125,4.945312 -4.6875,7.386719"
         style="fill:#211e1e;fill-opacity:1;fill-rule:nonzero;stroke:none"
         inkscape:connector-curvature="0" />
      <path
         id="path18"
         transform="matrix(1,0,0,-1,37.115,85.435)"
         d="M -0.00171875,0.00140625 2.412344,-1.260312 3.998281,-4.732969 1.924062,-5.678281 l -1.242187,2.726562 -1.445313,-0.660156 4.015625,-8.804687 1.445313,0.65625 -1.550781,3.402343 2.074218,0.945313 1.890625,-4.148438 -0.632812,-2.648437 -2.582031,-1.179688 -2.375,1.277344 -4.699219,10.300781 0.59375,2.632813 z m 0,0"
         style="fill:#ffffff;fill-opacity:1;fill-rule:nonzero;stroke:#211e1e;stroke-width:0.81900001;stroke-linecap:butt;stroke-linejoin:miter;stroke-miterlimit:22.9260006;stroke-opacity:1"
         inkscape:connector-curvature="0" />
      <path
         id="path20"
         transform="matrix(1,0,0,-1,46.973,98.186)"
         d="m -3.4375e-4,-0.0015 -5.50000025,14.617187 2.132813,0.804688 2.253906,-5.992188 1.484375,0.558594 -2.253906,5.992188 2.132812,0.804687 5.5,-14.617187 L 3.616844,1.361781 1.417625,7.209437 -0.06675,6.650844 2.132469,0.803187 Z m 0,0"
         style="fill:#ffffff;fill-opacity:1;fill-rule:nonzero;stroke:#211e1e;stroke-width:0.81900001;stroke-linecap:butt;stroke-linejoin:miter;stroke-miterlimit:22.9260006;stroke-opacity:1"
         inkscape:connector-curvature="0" />
      <path
         id="path22"
         transform="matrix(1,0,0,-1,53.998,93.319)"
         d="M -0.00190625,-0.0013125 -3.353469,10.811188 l 0.921875,2.535156 2.710938,0.84375 2.1875,-1.574219 L 5.818406,1.807281 4.90825,-0.727875 2.193406,-1.567719 Z M 1.931687,1.459625 3.400437,1.91275 0.53325,11.158844 -0.9355,10.701813 Z m 0,0"
         style="fill:#ffffff;fill-opacity:1;fill-rule:nonzero;stroke:#211e1e;stroke-width:0.81900001;stroke-linecap:butt;stroke-linejoin:miter;stroke-miterlimit:22.9260006;stroke-opacity:1"
         inkscape:connector-curvature="0" />
      <path
         id="path24"
         transform="matrix(1,0,0,-1,62.85,76.798)"
         d="M 0.0015625,0.001125 2.15,-1.67075 3.0875,-5.373875 0.876563,-5.932469 l -0.734375,2.90625 -1.539063,-0.390625 2.375,-9.382812 1.539063,0.390625 -0.917969,3.621094 2.210937,0.5625 1.117188,-4.421875 -1.09375,-2.492188 -2.753906,-0.699219 -2.109375,1.683594 -2.777344,10.972656 1.054687,2.484375 z m 0,0"
         style="fill:#ffffff;fill-opacity:1;fill-rule:nonzero;stroke:#211e1e;stroke-width:0.81900001;stroke-linecap:butt;stroke-linejoin:miter;stroke-miterlimit:22.9260006;stroke-opacity:1"
         inkscape:connector-curvature="0" />
      <path
         id="path26"
         transform="matrix(1,0,0,-1,69.869,88.972)"
         d="M -0.0018125,-6.5625e-4 -2.244,11.093094 l 1.171875,2.433593 2.785156,0.5625 L 3.728656,12.304031 5.97475,1.210281 4.810688,-1.219406 2.025531,-1.781906 Z M 2.072406,1.257156 3.576313,1.561844 1.658344,11.046219 0.150531,10.741531 Z m 0,0"
         style="fill:#ffffff;fill-opacity:1;fill-rule:nonzero;stroke:#211e1e;stroke-width:0.81900001;stroke-linecap:butt;stroke-linejoin:miter;stroke-miterlimit:22.9260006;stroke-opacity:1"
         inkscape:connector-curvature="0" />
      <path
         id="path28"
         transform="matrix(1,0,0,-1,78.304,89.515)"
         d="m 6.875e-4,-6.25e-4 -2.4648435,15.421875 2.25,0.359375 1.996093,-12.488281 2.703125,0.433594 0.46875,-2.933594 z m 0,0"
         style="fill:#ffffff;fill-opacity:1;fill-rule:nonzero;stroke:#211e1e;stroke-width:0.81900001;stroke-linecap:butt;stroke-linejoin:miter;stroke-miterlimit:22.9260006;stroke-opacity:1"
         inkscape:connector-curvature="0" />
      <path
         id="path30"
         transform="matrix(1,0,0,-1,84.764,88.496)"
         d="M 0.001625,-9.375e-5 -0.205406,15.706938 3.446937,16.144438 6.915687,0.831938 4.607094,0.554594 4.009437,3.421781 2.107094,3.195219 2.232094,0.269438 Z M 2.021156,6.175688 3.384437,6.33975 2.025062,13.035063 1.7985,13.007719 Z m 0,0"
         style="fill:#ffffff;fill-opacity:1;fill-rule:nonzero;stroke:#211e1e;stroke-width:0.81900001;stroke-linecap:butt;stroke-linejoin:miter;stroke-miterlimit:22.9260006;stroke-opacity:1"
         inkscape:connector-curvature="0" />
      <path
         id="path32"
         transform="matrix(1,0,0,-1,94.22,87.44)"
         d="M -0.00125,-0.00140625 -1.087187,12.600156 -2.696562,12.463437 -2.950469,15.420469 2.557344,15.897031 2.815156,12.94 1.205781,12.799375 2.295625,0.197812 Z m 0,0"
         style="fill:#ffffff;fill-opacity:1;fill-rule:nonzero;stroke:#211e1e;stroke-width:0.81900001;stroke-linecap:butt;stroke-linejoin:miter;stroke-miterlimit:22.9260006;stroke-opacity:1"
         inkscape:connector-curvature="0" />
      <path
         id="path34"
         transform="matrix(1,0,0,-1,99.995,86.98)"
         d="M 0.00109375,-4.6875e-4 -0.881719,15.593281 3.950312,15.866719 4.118281,12.901875 1.559687,12.757344 1.72375,9.894062 3.844844,10.015156 4.012812,7.046406 1.891719,6.929219 2.106562,3.093281 4.665156,3.237812 4.829219,0.272969 Z m 0,0"
         style="fill:#ffffff;fill-opacity:1;fill-rule:nonzero;stroke:#211e1e;stroke-width:0.81900001;stroke-linecap:butt;stroke-linejoin:miter;stroke-miterlimit:22.9260006;stroke-opacity:1"
         inkscape:connector-curvature="0" />
      <path
         id="path36"
         transform="matrix(1,0,0,-1,111.497,81.323)"
         d="M -9.0625e-4,-0.00121875 2.276437,0.0964375 2.362375,-1.977781 3.897531,-1.911375 3.764719,1.319094 1.710031,1.483156 -0.15325,3.701906 -0.352469,8.420656 1.170969,10.631594 3.8155,10.744875 5.530344,8.662844 5.651437,5.748781 3.581125,5.658938 3.491281,7.756594 1.956125,7.694094 2.088937,4.565188 4.139719,4.401125 6.006906,2.178469 6.210031,-2.637937 4.6905,-4.852781 1.823312,-4.973875 0.120187,-2.884031 Z m 0,0"
         style="fill:#ffffff;fill-opacity:1;fill-rule:nonzero;stroke:#211e1e;stroke-width:0.81900001;stroke-linecap:butt;stroke-linejoin:miter;stroke-miterlimit:22.9260006;stroke-opacity:1"
         inkscape:connector-curvature="0" />
      <path
         id="path38"
         transform="matrix(1,0,0,-1,120.042,86.023)"
         d="M 9.6875e-4,-4.375e-4 -0.506844,15.608937 1.7705,15.683156 1.977531,9.288625 3.563469,9.339406 3.356437,15.733937 5.633781,15.808156 6.141594,0.198781 3.86425,0.124562 3.661125,6.370656 2.075187,6.319875 2.278312,0.0737812 Z m 0,0"
         style="fill:#ffffff;fill-opacity:1;fill-rule:nonzero;stroke:#211e1e;stroke-width:0.81900001;stroke-linecap:butt;stroke-linejoin:miter;stroke-miterlimit:22.9260006;stroke-opacity:1"
         inkscape:connector-curvature="0" />
      <path
         id="path40"
         transform="matrix(1,0,0,-1,128.353,83.615)"
         d="M -0.0014375,0.00171875 -0.294406,11.314219 1.283719,13.505625 4.123562,13.579844 5.799344,11.474375 6.092312,0.157969 4.529812,-2.033437 1.686062,-2.107656 Z M 2.256375,0.880625 l 1.535156,0.039063 -0.25,9.675781 -1.535156,-0.04297 z m 0,0"
         style="fill:#ffffff;fill-opacity:1;fill-rule:nonzero;stroke:#211e1e;stroke-width:0.81900001;stroke-linecap:butt;stroke-linejoin:miter;stroke-miterlimit:22.9260006;stroke-opacity:1"
         inkscape:connector-curvature="0" />
      <path
         id="path42"
         transform="matrix(1,0,0,-1,136.808,85.555)"
         d="M 5.9375e-4,3.125e-4 -0.522844,15.609688 3.6295,15.746406 5.461531,13.656563 5.664656,7.613594 3.969344,5.383125 2.102156,5.320625 2.277937,0.0745313 Z M 3.356062,8.359688 3.211531,12.762031 1.856062,12.715156 2.000594,8.316719 Z m 0,0"
         style="fill:#ffffff;fill-opacity:1;fill-rule:nonzero;stroke:#211e1e;stroke-width:0.81900001;stroke-linecap:butt;stroke-linejoin:miter;stroke-miterlimit:22.9260006;stroke-opacity:1"
         inkscape:connector-curvature="0" />
      <path
         id="path44"
         d="m 137.50781,99.898438 v 0.0039 h -0.004 c 0,1.015622 -0.41407,1.937492 -1.07813,2.605462 -0.66797,0.66407 -1.58594,1.07422 -2.60156,1.07813 h -0.004 c -1.01953,0 -1.9414,-0.41406 -2.60547,-1.08203 -0.66406,-0.66407 -1.07812,-1.58203 -1.07812,-2.601562 h -0.004 v -0.0039 h 0.004 c 0,-1.019532 0.41406,-1.9375 1.07812,-2.605469 0.66797,-0.664063 1.58594,-1.078125 2.60157,-1.078125 h 0.008 c 1.01562,0 1.9375,0.414062 2.60156,1.082031 l 0.004,-0.0039 c 0.66406,0.667969 1.07422,1.585937 1.07422,2.601562 h 0.004 z m -0.82031,0.0039 v -0.0078 c 0,-0.785156 -0.32031,-1.503906 -0.83984,-2.019531 v -0.0039 c -0.51954,-0.519531 -1.23438,-0.839844 -2.02344,-0.839844 h -0.008 c -0.78907,0 -1.50391,0.324219 -2.02344,0.839844 -0.51953,0.519531 -0.83985,1.238281 -0.83985,2.027344 v 0.0039 c 0,0.789069 0.32032,1.507819 0.83985,2.027349 0.51953,0.51562 1.23437,0.83984 2.02734,0.83984 v -0.004 h 0.004 v 0.004 c 0.78906,-0.004 1.5039,-0.32422 2.02344,-0.83984 0.51953,-0.51953 0.83984,-1.23828 0.83984,-2.027349"
         style="fill:#211e1e;fill-opacity:1;fill-rule:nonzero;stroke:none"
         inkscape:connector-curvature="0" />
      <path
         id="path46"
         d="m 132.15625,101.96484 v -4.128902 h 1.57031 c 0.39453,0 0.6836,0.03516 0.86328,0.113281 0.17578,0.07031 0.32032,0.203125 0.42969,0.394531 0.10938,0.1875 0.16406,0.40625 0.16406,0.648438 0,0.3125 -0.082,0.566406 -0.24609,0.769531 -0.16406,0.199219 -0.40625,0.328121 -0.72656,0.378911 0.16015,0.10546 0.29297,0.22265 0.39843,0.34765 0.10547,0.125 0.2461,0.35156 0.42579,0.67188 l 0.45312,0.80468 h -0.89844 l -0.53906,-0.89843 c -0.19141,-0.32422 -0.32031,-0.52344 -0.39453,-0.60938 -0.0703,-0.082 -0.14453,-0.14062 -0.22266,-0.17187 -0.082,-0.0312 -0.20703,-0.0469 -0.3789,-0.0469 h -0.15235 v 1.72656 z m 0.74609,-2.382809 h 0.55078 c 0.35547,0 0.58204,-0.01563 0.66797,-0.05078 0.0898,-0.03516 0.16016,-0.08984 0.21094,-0.175781 0.0508,-0.08203 0.0742,-0.183594 0.0742,-0.308594 0,-0.136719 -0.0352,-0.25 -0.10156,-0.335937 -0.0625,-0.08203 -0.15625,-0.136719 -0.27735,-0.160157 -0.0625,-0.01172 -0.24218,-0.01563 -0.54297,-0.01563 h -0.58203 v 1.046875"
         style="fill:#211e1e;fill-opacity:1;fill-rule:nonzero;stroke:none"
         inkscape:connector-curvature="0" />
    </g>
    <g
       aria-label="Celebrating 100 Years!"
       transform="matrix(0.44283372,0,0,0.44283372,-0.93819738,-145.61289)"
       style="font-style:normal;font-variant:normal;font-weight:normal;font-stretch:normal;font-size:40px;line-height:125%;font-family:'Brush Script MT';-inkscape-font-specification:'Brush Script MT';letter-spacing:0px;word-spacing:0px;fill:#95724f;fill-opacity:0.94117647;stroke:none;stroke-width:1px;stroke-linecap:butt;stroke-linejoin:miter;stroke-opacity:1"
       id="flowRoot4892">
      <path
         d="m 90.363281,453.58429 v 1.26954 q -3.28125,3.65234 -6.035156,6.01562 -2.734375,2.38281 -5.351563,3.65234 -2.617187,1.28907 -5.058593,1.28907 -2.109375,0 -3.632813,-0.83985 Q 68.78125,464.13117 68,462.51008 q -0.761719,-1.60157 -0.761719,-3.8086 0,-1.73828 0.546875,-3.67187 0.566406,-1.95313 1.621094,-3.92578 1.054687,-1.99219 2.578125,-4.10157 1.542969,-2.10937 3.613281,-4.43359 2.148438,-2.40234 4.238281,-4.14063 2.089844,-1.75781 3.789063,-2.7539 1.699219,-0.9961 3.144531,-1.48438 1.464844,-0.48828 2.421875,-0.48828 0.976563,0 1.660156,0.46875 0.683594,0.46875 1.054688,1.36719 0.371094,0.89844 0.371094,2.07031 0,2.20703 -1.503907,4.92188 -1.503906,2.69531 -3.75,5.21484 -2.246093,2.51953 -4.296875,4.12109 -2.03125,1.58204 -2.929687,1.58204 -0.605469,0 -1.132813,-0.46875 -0.507812,-0.48829 -0.507812,-1.09375 0,-1.11329 1.171875,-2.69532 1.191406,-1.58203 2.578125,-2.89062 1.40625,-1.32813 1.679687,-1.32813 0.136719,0 0.136719,0.11719 0,0.17578 -0.214844,0.60547 -0.195312,0.42969 -0.195312,0.52734 0,0.15625 0.117187,0.15625 0.332032,0 1.914063,-1.77734 1.582031,-1.77734 2.890625,-3.90625 1.328125,-2.14844 1.328125,-3.51563 0,-0.5664 -0.253906,-0.85937 -0.234375,-0.3125 -0.722657,-0.3125 -1.367187,0 -4.160156,2.22656 -2.773437,2.20703 -5.703125,5.64453 -2.910156,3.41797 -4.863281,7.07032 -1.953125,3.65234 -1.953125,6.42578 0,1.60156 0.46875,2.67578 0.488281,1.07422 1.40625,1.66015 0.9375,0.58594 2.246094,0.58594 2.832031,0 6.425781,-2.20703 3.59375,-2.20703 7.910156,-6.50391 z"
         style=""
         id="path4912" />
      <path
         d="m 93.292969,454.36554 v 0.48829 q 0,1.15234 0.566406,1.79687 0.566406,0.64453 1.484375,0.64453 0.957031,0 1.972656,-0.44922 1.035156,-0.44922 2.050781,-1.1914 1.015623,-0.74219 2.480473,-1.99219 v 1.19141 q -2.207035,2.65625 -4.140629,4.08203 -1.933594,1.40625 -3.925781,1.40625 -1.738281,0 -2.753906,-1.34766 -1.015625,-1.34766 -1.015625,-3.69141 0,-2.05078 0.957031,-3.71093 0.957031,-1.67969 3.125,-3.53516 1.484375,-1.26953 2.949219,-1.91406 1.464843,-0.64453 2.617187,-0.64453 0.917974,0 1.445314,0.42968 0.54687,0.41016 0.54687,1.25 0,1.23047 -0.91796,2.46094 -0.917974,1.21094 -2.812505,2.42188 -1.875,1.1914 -4.628906,2.30468 z m 0.195312,-1.26953 q 1.757813,-0.68359 3.007813,-1.69922 1.25,-1.01562 1.835937,-1.93359 0.605469,-0.9375 0.605469,-1.36719 0,-0.44922 -0.410156,-0.44922 -0.351563,0 -1.152344,0.44922 -0.78125,0.44922 -1.601563,1.17188 -0.800781,0.72265 -1.445312,1.69922 -0.644531,0.97656 -0.839844,2.1289 z"
         style=""
         id="path4914" />
      <path
         d="m 111.22266,453.44758 v 1.44531 q -4.08203,5.41015 -6.64063,5.41015 -1.38672,0 -2.1875,-1.5039 -0.78125,-1.52344 -0.78125,-3.98438 0,-1.99218 0.9375,-4.72656 0.9375,-2.75391 2.5,-5.56641 1.58203,-2.83203 3.26172,-4.92187 1.69922,-2.10938 3.14453,-2.94922 0.58594,-0.35156 0.91797,-0.35156 0.41016,0 0.54688,0.37109 0.13671,0.35156 0.13671,1.23047 0,2.71484 -2.20703,6.67969 -2.20703,3.94531 -6.15234,8.0664 -0.19531,1.01563 -0.19531,1.5625 0,1.25 0.52734,2.03125 0.54688,0.78125 1.50391,0.78125 0.48828,0 1.05468,-0.37109 0.56641,-0.39062 1.19141,-0.95703 0.625,-0.56641 2.44141,-2.24609 z m -5.83985,-3.51563 q 1.01563,-0.99609 1.95313,-2.26562 0.95703,-1.26954 1.79687,-2.71485 0.83985,-1.44531 1.3086,-2.59765 0.48828,-1.15235 0.48828,-1.73829 0,-0.44921 -0.3125,-0.44921 -0.11719,0 -0.44922,0.21484 -1.19141,0.97656 -2.67578,3.82812 -1.48438,2.83204 -2.10938,5.72266 z"
         style=""
         id="path4916" />
      <path
         d="m 114.15234,454.36554 v 0.48829 q 0,1.15234 0.56641,1.79687 0.56641,0.64453 1.48438,0.64453 0.95703,0 1.97265,-0.44922 1.03516,-0.44922 2.05078,-1.1914 1.01563,-0.74219 2.48047,-1.99219 v 1.19141 q -2.20703,2.65625 -4.14062,4.08203 -1.9336,1.40625 -3.92578,1.40625 -1.73829,0 -2.75391,-1.34766 -1.01563,-1.34766 -1.01563,-3.69141 0,-2.05078 0.95704,-3.71093 0.95703,-1.67969 3.125,-3.53516 1.48437,-1.26953 2.94921,-1.91406 1.46485,-0.64453 2.61719,-0.64453 0.91797,0 1.44531,0.42968 0.54688,0.41016 0.54688,1.25 0,1.23047 -0.91797,2.46094 -0.91797,1.21094 -2.8125,2.42188 -1.875,1.1914 -4.62891,2.30468 z m 0.19532,-1.26953 q 1.75781,-0.68359 3.00781,-1.69922 1.25,-1.01562 1.83594,-1.93359 0.60547,-0.9375 0.60547,-1.36719 0,-0.44922 -0.41016,-0.44922 -0.35156,0 -1.15234,0.44922 -0.78125,0.44922 -1.60157,1.17188 -0.80078,0.72265 -1.44531,1.69922 -0.64453,0.97656 -0.83984,2.1289 z"
         style=""
         id="path4918" />
      <path
         d="m 135.67578,453.70148 v 1.26953 q -2.03125,1.28907 -3.20312,1.28907 -0.64454,0 -1.36719,-0.21485 -1.75781,2.22656 -3.02735,3.26172 -1.24999,1.03516 -2.51953,1.03516 -1.46484,0 -2.26562,-1.54297 -0.78125,-1.54297 -0.78125,-3.82813 0,-3.10547 1.875,-6.75781 1.875,-3.67187 4.51172,-6.85547 2.65625,-3.20312 5.13672,-5.29297 2.48046,-2.08984 3.35937,-2.08984 0.83984,0 0.83984,1.15234 0,5.11719 -13.12499,17.85157 -0.0391,0.35156 -0.0391,1.38671 0,2.69532 1.44532,2.69532 0.5664,0 1.13281,-0.44922 0.58593,-0.46875 1.77734,-1.75781 -0.46875,-1.05469 -0.46875,-1.5625 0,-1.07422 0.87891,-2.32422 0.8789,-1.25 1.99218,-2.14844 1.13282,-0.91797 1.64063,-0.91797 0.80078,0 0.80078,1.15234 0,0.87891 -0.46875,2.10938 -0.44922,1.23047 -1.32812,2.8125 0.33203,0.27344 0.52734,0.41016 0.19531,0.11718 0.58594,0.11718 0.89843,0 2.08984,-0.80078 z m -9.92187,-2.92969 q 1.01562,-0.8789 2.03125,-2.07031 1.03515,-1.21094 3.00781,-3.6914 1.89453,-2.38282 2.96875,-3.96485 1.09375,-1.60156 1.64062,-2.65625 0.54688,-1.05469 0.54688,-1.44531 0,-0.29297 -0.15625,-0.29297 -0.42969,0 -1.79688,1.42578 -1.34765,1.40625 -3.08593,3.86719 -2.40235,3.39844 -3.47657,5.11719 -1.07421,1.71875 -1.67968,3.71093 z"
         style=""
         id="path4920" />
      <path
         d="m 135.51953,455.16633 v -1.26954 q 1.05469,-1.25 1.60156,-2.1289 -0.625,-0.21485 -0.91797,-0.52735 -0.27343,-0.3125 -0.27343,-0.9375 0,-0.70312 0.58593,-1.77734 0.58594,-1.07422 1.44532,-2.01172 0.85937,-0.9375 1.5625,-1.21094 0.27343,-0.13671 0.52734,-0.13671 0.39063,0 0.39063,0.37109 0,0.33203 -0.60547,1.34766 4.02343,-0.625 5.07812,-0.625 0.41016,0 0.56641,0.0781 0.33203,0.17578 0.54687,0.82031 0.21485,0.64453 0.21485,1.28907 0,0.41015 -0.3711,0.89843 -0.35156,0.46875 -1.23047,1.38672 -1.03515,1.11328 -1.73828,2.42188 -0.70312,1.30859 -0.70312,1.97265 0,0.91797 1.13281,0.91797 1.19141,0 4.14063,-2.42187 v 1.30859 q -1.6211,1.69922 -2.67579,2.67578 -1.05468,0.97656 -1.95312,1.5625 -0.89844,0.56641 -1.60156,0.56641 -0.82032,0 -1.36719,-0.74219 -0.54688,-0.76172 -0.54688,-2.1875 0,-0.83984 0.42969,-1.91406 0.42969,-1.07422 1.25,-2.32422 0.83985,-1.26953 1.875,-2.51953 -0.54687,0.11719 -1.23047,0.2539 -0.68359,0.11719 -1.44531,0.25391 -0.76172,0.13672 -1.17187,0.21484 -1.21094,2.42188 -3.51563,4.39454 z"
         style=""
         id="path4922" />
      <path
         d="m 149.71875,450.16633 q 2.96875,-2.69532 5.76172,-4.00391 2.79297,-1.30859 4.3164,-1.30859 0.41016,0 0.76172,0.35156 0.35157,0.33203 0.54688,0.78125 0.21484,0.44922 0.21484,0.66406 0,0.35156 -0.27344,0.52734 -0.27343,0.15625 -0.95703,0.39063 0.13672,0.3125 0.35157,0.80078 0.21484,0.48828 0.33203,0.80078 0.11718,0.29297 0.11718,0.52735 0,0.46875 -0.95703,1.75781 -0.9375,1.26953 -1.32812,1.875 -0.3711,0.60547 -0.3711,1.48437 0,1.44532 1.32813,1.44532 1.36719,0 4.27734,-2.5586 v 1.19141 q -4.9414,5.48828 -7.07031,5.48828 -0.76172,0 -1.09375,-0.50781 -0.3125,-0.48828 -0.3125,-1.46485 0,-1.54297 1.11328,-4.47265 -2.85156,3.16406 -4.23828,4.51172 -1.38672,1.32812 -2.28516,1.32812 -0.42968,0 -1.07421,-0.74219 -0.64454,-0.74218 -1.15235,-1.91406 -0.48828,-1.19141 -0.48828,-2.46094 0,-0.91797 0.17578,-1.52343 0.17578,-0.625 0.6836,-1.26954 0.50781,-0.64453 1.62109,-1.69921 z m 9.35547,-2.14844 q -5.07813,2.32422 -7.2461,3.94531 -2.14843,1.62109 -2.14843,3.33984 0,0.625 0.21484,1.03516 0.21484,0.39063 0.58594,0.39063 0.21484,0 0.76172,-0.27344 2.05078,-1.21094 3.75,-3.14453 1.69922,-1.95313 4.08203,-5.29297 z"
         style=""
         id="path4924" />
      <path
         d="m 170.53906,443.5257 h 0.83985 q 1.03515,-1.85547 1.875,-2.61719 0.83984,-0.78125 1.91406,-0.78125 1.07422,0 1.07422,0.48828 0,0.23438 -0.83985,1.26954 -0.83984,1.03515 -1.26953,1.73828 0.66406,0.0781 1.17188,0.13672 0.52734,0.0586 0.82031,0.0976 -1.11328,2.07031 -2.79297,4.23828 -0.54687,-0.0391 -0.91797,-0.0586 -0.37109,-0.0391 -0.76172,-0.0586 -0.37109,-0.0391 -0.91797,-0.0781 -1.05468,1.69922 -1.77734,3.04688 -0.70312,1.32812 -1.09375,2.4414 -0.37109,1.11328 -0.37109,2.10938 0,1.34765 1.07422,1.34765 0.74218,0 1.93359,-0.78125 1.21094,-0.80078 3.22266,-2.4414 v 1.30859 q -5.27344,5.72266 -7.79297,5.72266 -0.87891,0 -1.42578,-0.6836 -0.52735,-0.68359 -0.52735,-1.75781 0,-0.72266 0.29297,-1.71875 0.3125,-0.99609 1.09375,-3.00781 -0.27344,0.23437 -0.52734,0.46875 -0.23438,0.21484 -0.44922,0.41015 -0.19531,0.17579 -0.42969,0.39063 -0.23437,0.19531 -0.46875,0.41016 v -1.34766 q 2.05078,-1.71875 4.96094,-6.03516 -0.29297,-0.0195 -0.54688,-0.0195 -0.2539,-0.0195 -0.60547,-0.0195 -1.15234,0 -1.71875,0.15625 -0.23437,0.0586 -0.44921,0.13672 -0.19532,0.0586 -0.27344,0.0586 -0.0781,0 -0.0781,-0.11718 0,-0.64454 0.80078,-1.9336 0.64454,-1.09375 1.21094,-1.62109 0.58594,-0.52735 1.40625,-0.70313 0.83985,-0.19531 2.34375,-0.19531 z"
         style=""
         id="path4926" />
      <path
         d="m 181.69141,444.93195 q -0.48829,0 -0.9375,-0.37109 -0.42969,-0.3711 -0.42969,-0.9375 0,-0.85938 0.82031,-1.91407 0.82031,-1.05468 1.69922,-1.05468 0.58594,0 0.97656,0.37109 0.39063,0.35156 0.39063,1.03516 0,0.83984 -0.80078,1.85547 -0.80079,1.01562 -1.71875,1.01562 z m 1.32812,8.73047 v 1.42578 q -1.89453,2.44141 -3.53516,3.69141 -1.64062,1.23047 -2.79296,1.23047 -1.60157,0 -2.38282,-1.67969 -0.78125,-1.67969 -0.78125,-3.67188 0,-0.76172 0.15625,-1.44531 0.15625,-0.70312 0.3711,-1.15234 0.21484,-0.44922 0.80078,-1.40625 2.77344,-4.31641 5.07812,-4.31641 1.19141,0 1.19141,0.91797 0,0.625 -0.78125,1.95312 -0.76172,1.32813 -1.36719,1.89454 -1.69922,1.64062 -2.22656,2.28515 -0.50781,0.64453 -0.50781,1.46485 0,0.70312 0.52734,1.17187 0.52734,0.46875 1.36719,0.46875 0.91797,0 2.01172,-0.66406 1.11328,-0.6836 2.87109,-2.16797 z"
         style=""
         id="path4928" />
      <path
         d="m 195.98828,450.12726 q -3.4375,3.82813 -3.4375,5.33203 0,0.83985 0.68359,0.83985 0.56641,0 1.46485,-0.58594 0.91797,-0.60547 2.85156,-2.12891 v 1.34766 q -2.77344,2.73438 -4.25781,3.94531 -1.48438,1.21094 -2.42188,1.21094 -1.60156,0 -1.60156,-2.10937 0,-0.625 0.19531,-1.23047 0.19532,-0.60547 0.52735,-1.25 0.35156,-0.66407 1.05468,-1.875 0.70313,-1.23047 1.6211,-2.77344 -1.11328,0.56641 -2.79297,2.24609 -1.09375,1.05469 -1.85547,2.01172 -0.76172,0.9375 -1.64062,2.10938 -0.85938,1.15234 -1.26954,1.5625 -0.39062,0.39062 -0.80078,0.39062 -0.625,0 -1.15234,-1.30859 -0.52734,-1.3086 -0.52734,-3.04688 0,-1.07422 0.23437,-1.67968 0.25391,-0.60547 0.97656,-1.71875 1.34766,-2.07032 2.32422,-3.02735 0.97656,-0.97656 1.875,-0.97656 0.625,0 0.9961,0.21484 0.39062,0.21485 0.39062,0.66407 0,0.19531 -0.11719,0.41015 -0.11718,0.21485 -0.27343,0.39063 -0.13672,0.17578 -0.60547,0.68359 -3.08594,3.41797 -3.08594,4.43359 0,0.56641 0.37109,0.56641 0.23438,0 0.89844,-0.74219 0.68359,-0.76172 1.73828,-1.97265 1.07422,-1.23047 2.51953,-2.5586 1.46485,-1.32812 3.32032,-2.55859 1.03515,-0.72266 1.71875,-0.72266 0.3125,0 0.60546,0.85938 0.3125,0.85937 0.3125,1.73828 0,0.42969 -0.83984,1.30859 z"
         style=""
         id="path4930" />
      <path
         d="m 212.96094,454.97101 -6.48438,5.33203 q -2.73437,4.72657 -4.98047,7.05079 -2.24609,2.34375 -3.33984,2.34375 -0.58594,0 -0.58594,-0.72266 0,-1.40625 1.42578,-3.59375 0.56641,-0.85938 1.28907,-1.67969 0.74218,-0.82031 1.38671,-1.42578 0.66407,-0.58594 1.73829,-1.48437 1.07421,-0.87891 1.46484,-1.21094 1.95312,-3.98438 2.8125,-6.09375 -1.83594,1.95312 -3.20313,3.20312 -1.36718,1.25 -2.51953,1.9336 -1.13281,0.66406 -2.05078,0.66406 -0.99609,0 -1.83594,-1.58203 -0.83984,-1.60156 -0.83984,-3.28125 0,-0.78125 0.35156,-1.64063 0.3711,-0.85937 1.13282,-1.83593 0.78125,-0.97657 1.97265,-1.99219 1.19141,-1.03516 2.79297,-2.01172 3.02734,-1.89453 4.70703,-1.89453 1.25,0 1.25,0.91797 0,1.26953 -2.71484,2.48047 -1.66016,0.72265 -3.30078,1.91406 -1.6211,1.1914 -2.63672,2.53906 -0.9961,1.32813 -0.9961,2.40234 0,0.52735 0.25391,0.83985 0.25391,0.3125 0.66406,0.3125 0.6836,0 1.5625,-0.625 0.87891,-0.625 2.59766,-2.20703 0.78125,-0.72266 2.07031,-2.32422 1.3086,-1.6211 2.14844,-2.46094 0.85937,-0.85937 1.54297,-0.85937 0.39062,0 0.625,0.2539 0.2539,0.23438 0.2539,0.70313 0,0.89843 -0.72265,2.61718 -0.70313,1.69922 -2.5586,5.58594 l 4.72657,-3.4375 z"
         style=""
         id="path4932" />
      <path
         d="m 227.6875,441.14289 v -1.60156 q 0.70312,-0.625 1.42578,-1.21094 0.72266,-0.58594 1.60156,-1.26953 0.89844,-0.6836 1.83594,-1.3086 0.95703,-0.625 2.16797,-1.28906 1.07422,1.5625 1.07422,2.98828 0,0.78125 -0.33203,1.73828 -0.33203,0.95703 -0.91797,2.1875 -0.56641,1.23047 -1.42578,3.08594 -2.30469,5.09766 -3.45703,8.41797 -1.13282,3.30078 -1.13282,4.49219 0,0.0976 0.13672,0.76172 0.13672,0.66406 0.13672,0.99609 0,0.56641 -0.33203,0.60547 -0.3125,0.0391 -0.89844,-0.23438 -1.5039,-0.74218 -2.01172,-1.40625 -0.50781,-0.66406 -0.50781,-1.71875 0,-1.89453 1.38672,-5.8789 0.70312,-2.01172 1.64062,-4.00391 0.9375,-1.99219 2.07032,-4.02344 1.15234,-2.05078 2.16797,-3.76953 -2.20704,0.91797 -4.62891,2.44141 z"
         style=""
         id="path4934" />
      <path
         d="m 251.94531,437.13898 q 0.91797,0.41016 1.32813,1.34766 0.42968,0.91797 0.42968,2.73437 0,2.75391 -1.11328,5.9375 -1.09375,3.1836 -3.08593,5.97657 -1.97266,2.79296 -4.53125,4.60937 -2.8711,2.03125 -4.70704,2.03125 -1.42578,0 -2.67578,-0.85937 -1.25,-0.85938 -1.99218,-2.44141 -0.74219,-1.60156 -0.74219,-3.73047 0,-2.96875 1.62109,-6.23047 1.64063,-3.28125 4.14063,-5.91797 2.51953,-2.63672 5.23437,-4.0625 2.73438,-1.42578 4.6875,-0.99609 1.26953,0.27344 1.40625,1.60156 z m -4.49219,3.82813 0.6836,-1.42578 q -1.15235,0.58593 -2.03125,1.15234 -0.87891,0.56641 -2.03125,1.60156 -1.13281,1.03516 -2.38281,2.59766 -2.03125,2.59765 -3.06641,5.03906 -1.03516,2.42188 -1.03516,4.12109 0,2.44141 1.64063,2.44141 0.9375,0 2.67578,-1.01562 1.75781,-1.01563 3.71094,-2.79297 1.875,-1.71875 3.28125,-3.84766 1.42578,-2.12891 2.16797,-4.19922 0.76171,-2.07031 0.76171,-3.53515 0,-0.9375 -0.41015,-1.44532 -0.41016,-0.52734 -1.03516,-0.52734 -0.58594,0 -1.25,0.44922 -0.64453,0.44922 -1.67969,1.38672 z"
         style=""
         id="path4936" />
      <path
         d="m 269.44531,437.13898 q 0.91797,0.41016 1.32813,1.34766 0.42968,0.91797 0.42968,2.73437 0,2.75391 -1.11328,5.9375 -1.09375,3.1836 -3.08593,5.97657 -1.97266,2.79296 -4.53125,4.60937 -2.8711,2.03125 -4.70704,2.03125 -1.42578,0 -2.67578,-0.85937 -1.25,-0.85938 -1.99218,-2.44141 -0.74219,-1.60156 -0.74219,-3.73047 0,-2.96875 1.62109,-6.23047 1.64063,-3.28125 4.14063,-5.91797 2.51953,-2.63672 5.23437,-4.0625 2.73438,-1.42578 4.6875,-0.99609 1.26953,0.27344 1.40625,1.60156 z m -4.49219,3.82813 0.6836,-1.42578 q -1.15235,0.58593 -2.03125,1.15234 -0.87891,0.56641 -2.03125,1.60156 -1.13281,1.03516 -2.38281,2.59766 -2.03125,2.59765 -3.06641,5.03906 -1.03516,2.42188 -1.03516,4.12109 0,2.44141 1.64063,2.44141 0.9375,0 2.67578,-1.01562 1.75781,-1.01563 3.71094,-2.79297 1.875,-1.71875 3.28125,-3.84766 1.42578,-2.12891 2.16797,-4.19922 0.76171,-2.07031 0.76171,-3.53515 0,-0.9375 -0.41015,-1.44532 -0.41016,-0.52734 -1.03516,-0.52734 -0.58594,0 -1.25,0.44922 -0.64453,0.44922 -1.67969,1.38672 z"
         style=""
         id="path4938" />
      <path
         d="m 278.3125,446.22101 0.35156,-2.28515 q 0.17578,-1.17188 0.625,-1.91407 0.44922,-0.74218 1.58203,-1.62109 1.11328,-0.89844 3.47657,-2.53906 5.68359,-3.96485 8.84765,-3.96485 0.95703,0 1.34766,0.39063 0.41015,0.39062 0.41015,1.36719 0,0.68359 -0.52734,1.875 -0.50781,1.1914 -1.89453,3.76953 -1.36719,2.57812 -2.42188,4.6289 -0.85937,1.67969 -1.95312,3.57422 -1.09375,1.875 -1.46484,2.57813 -0.3711,0.70312 -0.3711,1.05469 0,0.39062 0.25391,0.68359 0.2539,0.27344 0.625,0.27344 0.50781,0 1.13281,-0.54688 0.64453,-0.54687 2.5,-2.36328 0.89844,-0.89844 1.91406,-2.12891 1.03516,-1.23046 2.5586,-3.16406 1.52343,-1.93359 2.8125,-3.59375 0.80078,-1.03515 1.44531,-1.85547 0.64453,-0.82031 1.09375,-1.25 0.46875,-0.44922 0.74219,-0.44922 0.23437,0 0.76172,0.58594 l 0.46875,0.60547 q 0.52734,0.74219 0.52734,1.07422 0,0.39062 -1.46484,2.87109 -1.44532,2.46094 -2.46094,4.27735 -1.01563,1.79687 -2.63672,5.21484 -1.60156,3.39844 -3.08594,7.55859 3.96485,-2.98828 5.42969,-3.98437 1.46484,-1.01563 2.12891,-1.01563 0.44921,0 0.44921,0.3711 0,0.41015 -0.42968,1.07422 -0.42969,0.64453 -1.15235,1.44531 -0.72265,0.78125 -2.1875,2.26562 -1.44531,1.50391 -3.16406,3.24219 -1.05469,1.07422 -2.05078,2.5 -0.99609,1.42578 -1.54297,2.20703 -0.54687,0.78125 -0.99609,0.89844 -0.66407,0.19531 -1.21094,-0.29297 -0.54688,-0.48828 -0.54688,-1.54297 0,-0.74218 0.74219,-3.0664 0.76172,-2.32422 2.28516,-5.78125 0.89844,-2.07032 1.83594,-3.90625 0.9375,-1.85547 2.14843,-4.0625 1.23047,-2.22657 2.40235,-4.21875 1.17187,-1.99219 1.99218,-3.39844 -1.95312,2.55859 -3.88671,4.98047 -1.91407,2.40234 -4.29688,5.07812 -2.36328,2.65625 -4.78516,4.98047 -1.05468,0.9961 -1.52343,1.34766 -0.44922,0.37109 -1.19141,0.37109 -0.46875,0 -0.91797,-0.33203 -0.42969,-0.3125 -0.72265,-0.82031 -0.29297,-0.52735 -0.29297,-1.01563 0,-0.82031 0.23437,-1.44531 0.25391,-0.625 0.85938,-1.875 2.65625,-5.37109 3.86718,-7.36328 4.33594,-6.95313 4.33594,-7.79297 0,-0.27344 -0.19531,-0.42969 -0.19531,-0.17578 -0.48828,-0.17578 -0.54688,0 -1.3086,0.48828 -0.76171,0.46875 -1.91406,1.40625 -1.15234,0.9375 -2.8125,2.2461 -1.64062,1.30859 -3.45703,2.5 -0.72266,0.46875 -1.62109,1.11328 -0.91797,0.64453 -1.05469,0.64453 -0.27344,0 -0.27344,-0.27344 0,-0.2539 0.11719,-1.07422 z"
         style=""
         id="path4940" />
      <path
         d="m 304.50391,454.36554 v 0.48829 q 0,1.15234 0.5664,1.79687 0.56641,0.64453 1.48438,0.64453 0.95703,0 1.97265,-0.44922 1.03516,-0.44922 2.05078,-1.1914 1.01563,-0.74219 2.48047,-1.99219 v 1.19141 q -2.20703,2.65625 -4.14062,4.08203 -1.9336,1.40625 -3.92578,1.40625 -1.73828,0 -2.75391,-1.34766 -1.01562,-1.34766 -1.01562,-3.69141 0,-2.05078 0.95703,-3.71093 0.95703,-1.67969 3.125,-3.53516 1.48437,-1.26953 2.94922,-1.91406 1.46484,-0.64453 2.61718,-0.64453 0.91797,0 1.44532,0.42968 0.54687,0.41016 0.54687,1.25 0,1.23047 -0.91797,2.46094 -0.91797,1.21094 -2.8125,2.42188 -1.875,1.1914 -4.6289,2.30468 z m 0.19531,-1.26953 q 1.75781,-0.68359 3.00781,-1.69922 1.25,-1.01562 1.83594,-1.93359 0.60547,-0.9375 0.60547,-1.36719 0,-0.44922 -0.41016,-0.44922 -0.35156,0 -1.15234,0.44922 -0.78125,0.44922 -1.60157,1.17188 -0.80078,0.72265 -1.44531,1.69922 -0.64453,0.97656 -0.83984,2.1289 z"
         style=""
         id="path4942" />
      <path
         d="m 315.42187,450.16633 q 2.96875,-2.69532 5.76172,-4.00391 2.79297,-1.30859 4.31641,-1.30859 0.41016,0 0.76172,0.35156 0.35156,0.33203 0.54687,0.78125 0.21485,0.44922 0.21485,0.66406 0,0.35156 -0.27344,0.52734 -0.27344,0.15625 -0.95703,0.39063 0.13672,0.3125 0.35156,0.80078 0.21484,0.48828 0.33203,0.80078 0.11719,0.29297 0.11719,0.52735 0,0.46875 -0.95703,1.75781 -0.9375,1.26953 -1.32813,1.875 -0.37109,0.60547 -0.37109,1.48437 0,1.44532 1.32812,1.44532 1.36719,0 4.27735,-2.5586 v 1.19141 q -4.94141,5.48828 -7.07031,5.48828 -0.76172,0 -1.09375,-0.50781 -0.3125,-0.48828 -0.3125,-1.46485 0,-1.54297 1.11328,-4.47265 -2.85157,3.16406 -4.23828,4.51172 -1.38672,1.32812 -2.28516,1.32812 -0.42969,0 -1.07422,-0.74219 -0.64453,-0.74218 -1.15234,-1.91406 -0.48828,-1.19141 -0.48828,-2.46094 0,-0.91797 0.17578,-1.52343 0.17578,-0.625 0.68359,-1.26954 0.50781,-0.64453 1.62109,-1.69921 z m 9.35547,-2.14844 q -5.07812,2.32422 -7.24609,3.94531 -2.14844,1.62109 -2.14844,3.33984 0,0.625 0.21485,1.03516 0.21484,0.39063 0.58593,0.39063 0.21485,0 0.76172,-0.27344 2.05078,-1.21094 3.75,-3.14453 1.69922,-1.95313 4.08203,-5.29297 z"
         style=""
         id="path4944" />
      <path
         d="m 329.19141,455.16633 v -1.26954 q 1.05468,-1.25 1.60156,-2.1289 -0.625,-0.21485 -0.91797,-0.52735 -0.27344,-0.3125 -0.27344,-0.9375 0,-0.70312 0.58594,-1.77734 0.58594,-1.07422 1.44531,-2.01172 0.85938,-0.9375 1.5625,-1.21094 0.27344,-0.13671 0.52735,-0.13671 0.39062,0 0.39062,0.37109 0,0.33203 -0.60547,1.34766 4.02344,-0.625 5.07813,-0.625 0.41015,0 0.5664,0.0781 0.33203,0.17578 0.54688,0.82031 0.21484,0.64453 0.21484,1.28907 0,0.41015 -0.37109,0.89843 -0.35156,0.46875 -1.23047,1.38672 -1.03516,1.11328 -1.73828,2.42188 -0.70313,1.30859 -0.70313,1.97265 0,0.91797 1.13282,0.91797 1.1914,0 4.14062,-2.42187 v 1.30859 q -1.62109,1.69922 -2.67578,2.67578 -1.05469,0.97656 -1.95313,1.5625 -0.89843,0.56641 -1.60156,0.56641 -0.82031,0 -1.36719,-0.74219 Q 333,458.23273 333,456.80695 q 0,-0.83984 0.42969,-1.91406 0.42968,-1.07422 1.25,-2.32422 0.83984,-1.26953 1.875,-2.51953 -0.54688,0.11719 -1.23047,0.2539 -0.6836,0.11719 -1.44531,0.25391 -0.76172,0.13672 -1.17188,0.21484 -1.21094,2.42188 -3.51562,4.39454 z"
         style=""
         id="path4946" />
      <path
         d="m 341.02734,454.20929 v -0.46875 q 5.03907,-5.3125 6.9336,-7.4414 0.42968,-2.40235 2.07031,-2.40235 0.41016,0 0.87891,0.23438 l 0.11718,0.37109 q -0.0781,0.23438 -0.0781,0.66407 0,0.37109 0.27344,1.38671 0.29296,0.9961 0.44921,1.67969 0.15625,0.6836 0.15625,1.54297 0,1.28906 -0.58593,2.48047 -0.58594,1.17187 -1.69922,2.26562 -1.11328,1.07422 -2.8711,2.20704 0.70313,0.11718 1.11329,0.11718 0.80078,0 1.71875,-0.39062 0.9375,-0.41016 1.89453,-1.07422 0.97656,-0.68359 2.26562,-1.75781 v 1.30859 q -2.5,2.44141 -4.47265,3.71094 -1.97266,1.25 -3.39844,1.25 -1.83594,0 -3.39844,-1.5625 -0.91797,-0.9375 -1.15234,-1.79688 -0.21485,-0.85937 -0.21485,-2.32422 z m 7.28516,-2.98828 -0.35156,-2.85156 q -1.21094,1.36719 -5.17578,5.25391 1.17187,0.2539 1.60156,0.68359 0.42969,0.42969 1.21094,1.66016 1.32812,-0.54688 2.03125,-1.48438 0.72265,-0.95703 0.72265,-2.59765 0,-0.19532 -0.0195,-0.35157 0,-0.15625 -0.0195,-0.3125 z"
         style=""
         id="path4948" />
      <path
         d="m 367.21875,434.7757 q 0.41016,-0.11719 0.72266,-0.11719 0.64453,0 1.40625,0.41016 0.78125,0.41016 1.30859,1.15234 -0.91797,1.34766 -2.98828,4.41407 -2.05078,3.0664 -3.06641,4.58984 -1.01562,1.52344 -2.08984,3.16406 -1.07422,1.64063 -1.6211,2.53906 0.3711,0.0781 0.3711,0.44922 0,0.23438 -0.46875,0.80078 -0.44922,0.56641 -0.82031,0.56641 -0.42969,0 -1.09375,-0.78125 -0.66407,-0.78125 -0.66407,-1.34766 0,-0.27343 0.29297,-0.9375 0.3125,-0.66406 1.07422,-1.99218 0.76172,-1.34766 1.69922,-2.96875 0.95703,-1.6211 2.32422,-3.98438 2.67578,-4.58984 3.61328,-5.95703 z m -9.64844,24.88281 q -0.58594,0 -1.15234,-0.50781 -0.56641,-0.52734 -0.56641,-1.46484 0,-1.23047 0.625,-2.77344 0.64453,-1.54297 1.32813,-1.54297 0.42968,0 0.85937,0.3125 0.44922,0.29297 0.76172,0.83984 0.3125,0.54688 0.3125,1.21094 0,1.07422 -0.72266,2.5 -0.72265,1.42578 -1.44531,1.42578 z"
         style=""
         id="path4950" />
    </g>
  </g>
</svg>
